PathFileType	4	(X/Y/Z)	C:/Users/beibeiliu/ov580/test_trc/User3\sequence.13_training_dense_left.trc
DataRate	CameraRate	NumFrames	NumMarkers	Units	OrigDataRate	OrigDataStartFrame	OrigNumFrames
120	120	11	19	mm	120	29	85
Frame#	Time	ThumbCMC			ThumbMCP			ThumbIP			ThumbTip			IndexMCP			IndexPIP			IndexTip			MiddleMCP			MiddlePIP			MiddleTip			RingMCP			RingPIP			RingTip			PinkyMCP			PinkyPIP			PinkyTip			BackHand1			BackHand2			BackHand3	
		X0	Y0	Z0	X1	Y1	Z1	X2	Y2	Z2	X3	Y3	Z3	X4	Y4	Z4	X5	Y5	Z5	X6	Y6	Z6	X7	Y7	Z7	X8	Y8	Z8	X9	Y9	Z9	X10	Y10	Z10	X11	Y11	Z11	X12	Y12	Z12	X13	Y13	Z13	X14	Y14	Z14	X15	Y15	Z15	X16	Y16	Z16	X17	Y17	Z17	X18	Y18	Z18	
28	0.233333	-153.337	-10.7751	7.3436	-148.504	-1.54951	-19.2927	-138.603	-0.728723	-49.9655	-121.338	-1.85939	-66.8862	-130.053	-50.7499	-54.163	-117.705	-38.8432	-79.9574	-102.387	-6.76815	-82.7683	-109.894	-54.2961	-50.6761	-93.6092	-28.3544	-70.3599	-92.9891	-1.98289	-46.1909	-88.8397	-48.2265	-40.8048	-80.045	-19.2803	-48.8672	-89.9692	-1.60923	-25.085	-76.615	-45.6238	-22.9664	-71.4905	-16.924	-27.754	-85.9941	-4.12512	-4.55823	-109.014	-63.9897	12.2924	-118.163	-51.7252	45.3834	-143.048	-48.3781	18.2747	
29	0.241667	-166.511	-12.4755	15.037	-164.644	-11.5593	-17.6124	-163.364	-11.1515	-48.9418	-147.029	-18.5932	-69.3006	-159.309	-64.9676	-42.8774	-150.942	-57.1405	-74.7671	-135.079	-27.8908	-82.9571	-136.876	-74.1781	-45.2972	-123.047	-53.1198	-67.9797	-117.145	-19.2431	-45.2032	-118.855	-67.7525	-36.4565	-105.305	-43.5612	-49.2122	-106.375	-21.3279	-25.5601	-104.258	-63.597	-21.8172	-95.291	-37.1637	-31.5321	-105.375	-20.973	-8.36642	-136.613	-68.9164	21.6081	-135.098	-55.4977	47.6337	-163.858	-50.2187	26.7843	
30	0.25	-178.969	-11.0464	17.7381	-183.762	-6.3489	-15.6934	-180.193	-12.2389	-41.3863	-172.056	-25.6378	-64.3163	-198.565	-60.6254	-38.7957	-187.56	-60.6764	-65.1868	-162.575	-37.9226	-78.7381	-177.863	-76.0477	-35.1961	-160.325	-63.802	-63.7332	-141.37	-35.4875	-48.1692	-157.666	-77.9072	-32.9372	-136.428	-59.1173	-47.1746	-134.689	-33.0407	-27.7765	-138.905	-77.4865	-20.6357	-125.03	-58.5238	-32.3944	-124.964	-32.7799	-9.86621	-165.788	-74.871	27.0543	-157.303	-56.8559	54.0855	-186.179	-44.8615	33.8565	
31	0.258333	-183.707	6.64142	22.3946	-186.763	12.9889	-12.5308	-190.058	5.70169	-37.9825	-190.046	-6.33974	-63.3674	-225.938	-33.6105	-32.6256	-219.704	-32.401	-61.8594	-191.251	-22.7121	-76.1562	-218.09	-51.3346	-35.9703	-198.417	-46.5789	-61.7109	-165.635	-28.1474	-50.1322	-198.076	-65.3498	-27.1346	-179.04	-57.6799	-48.0126	-157.448	-36.2167	-30.6421	-182.036	-75.2313	-15.8932	-161.354	-63.5078	-34.9708	-148.411	-43.9941	-20.2722	-200.824	-56.6205	30.7336	-183.511	-44.3193	56.0313	-206.076	-18.6142	35.4451	
32	0.266667	-173.383	22.6605	21.8652	-171.866	29.7906	-9.39236	-176.58	29.8073	-39.8219	-185.321	14.8583	-60.174	-228.011	18.1662	-28.8689	-223.071	11.4948	-62.2226	-195.507	3.48355	-75.8418	-233.295	-6.0929	-32.8796	-218.529	-11.1765	-63.5164	-179.776	-14.1397	-54.8458	-226.879	-24.2895	-28.8567	-207.888	-32.3321	-51.4751	-177.291	-28.2986	-37.2226	-217.908	-46.242	-19.663	-198.291	-42.9879	-39.5324	-171.451	-36.0579	-25.3048	-222.799	-22.1571	28.5285	-201.282	-21.7934	54.4681	-205.414	6.70795	36.8013	
33	0.275	-149.801	28.6038	21.4433	-144.323	34.3953	-11.8341	-149.992	36.8333	-44.1802	-161.147	28.7574	-61.4643	-199.712	53.4388	-32.6222	-196.463	48.4528	-65.1513	-176.764	26.1072	-77.7023	-215.53	42.1105	-39.0247	-207.072	29.6604	-67.0003	-179.876	3.83578	-61.8204	-222.019	21.6485	-35.29	-211.219	5.64277	-56.312	-183.825	-11.4551	-42.361	-228.94	-0.486841	-28.267	-211.118	-9.48345	-45.2207	-187.592	-24.5881	-36.6985	-216.817	21.1011	23.9187	-205.521	8.02136	47.7047	-189.765	34.5236	33.9618	
34	0.283333	-132.702	19.2085	18.2318	-119.364	19.6898	-13.9153	-122.732	21.935	-43.3687	-137.921	19.9127	-65.2781	-162.091	61.172	-38.4821	-160.507	50.4658	-73.2056	-154.11	26.0942	-82.2543	-183.792	57.812	-46.666	-180.104	39.3522	-74.3207	-165.676	3.66342	-64.8321	-201.166	40.6575	-40.3561	-191.324	21.2265	-65.0039	-176.329	-5.22922	-48.775	-214.142	23.0775	-29.0061	-201.922	7.85299	-53.1354	-182.979	-12.1922	-42.9824	-195.57	38.5332	17.3053	-191.275	20.6963	44.8871	-166.786	40.2751	27.7765	
35	0.291667	-112.231	7.32154	18.3135	-100.913	5.79432	-15.649	-102.369	3.87474	-42.6875	-115.542	0.573602	-65.4406	-131.229	49.875	-47.1244	-126.908	34.1465	-79.2069	-127.386	7.41213	-83.5493	-158.61	48.6	-54.5768	-151.977	28.2899	-79.9074	-144.594	-7.79596	-68.596	-175.382	36.506	-47.7689	-169.597	12.5799	-69.709	-159.241	-11.49	-52.6821	-191.042	25.0183	-40.285	-181.931	3.94079	-57.6803	-171.855	-17.6534	-44.1842	-174.724	40.6088	8.84986	-174.107	26.4226	38.476	-142.637	34.5727	23.0156	
36	0.3	-93.1706	0.99731	21.7639	-82.1612	-7.46525	-9.58486	-80.8161	-14.3813	-36.34	-88.7718	-21.5847	-63.0186	-110.299	30.58	-51.0309	-106.851	15.2494	-77.8184	-107.522	-16.874	-79.2182	-131.632	31.5205	-56.6252	-126.803	9.03957	-80.6762	-127.413	-26.0404	-62.8211	-150.779	21.8835	-49.444	-147.563	-2.27341	-68.1992	-136.366	-27.3163	-42.6992	-165.803	11.9754	-42.6693	-159.033	-9.95286	-54.8444	-150.124	-31.0664	-33.8729	-154.453	33.3935	6.18947	-153.574	27.6484	33.927	-121.837	30.4333	19.766	
37	0.308333	-79.6856	0.0344443	26.0408	-64.8678	-14.962	-0.843226	-60.4526	-28.1816	-23.187	-65.6288	-40.7133	-47.8677	-89.56	10.8857	-53.6635	-83.4072	-11.703	-73.7271	-79.2349	-41.4736	-65.04	-112.06	8.14756	-55.5816	-105.687	-20.8866	-72.6082	-103.991	-46.9262	-45.2632	-130.613	-0.291538	-49.8936	-121.036	-31.4549	-58.2554	-117.087	-43.8796	-25.0526	-148.377	-6.52806	-37.878	-139.519	-34.0663	-45.0188	-125.41	-44.4202	-22.7474	-132.963	26.3354	2.92933	-142.274	26.3271	30.3892	-102.273	28.9515	16.0772	
38	0.316667	-72.6714	12.062	31.6633	-47.5663	-6.10946	14.0193	-36.4382	-22.7738	-8.33704	-42.1426	-40.593	-24.7301	-70.5993	3.92021	-44.4422	-53.469	-22.0399	-60.9901	-47.8864	-48.6166	-45.4093	-85.0827	-7.62159	-51.2291	-72.9546	-39.8839	-56.6619	-69.8091	-54.9564	-19.1621	-101.917	-20.8348	-45.5643	-89.4765	-49.4029	-42.7889	-84.7245	-51.5519	-9.5057	-119.377	-31.1849	-33.5383	-106.508	-54.6318	-27.8076	-96.1695	-50.4762	3.88973	-126.168	14.0114	-3.53225	-131.789	22.4948	23.1195	-97.4941	32.3647	13.0079	
